<?xml version="1.0" encoding="UTF-8" standalone="no"?>
<!-- Generator: Adobe Illustrator 18.1.1, SVG Export Plug-In . SVG Version: 6.00 Build 0)  -->

<svg
   version="1.1"
   id="Capa_1"
   x="0px"
   y="0px"
   viewBox="0 0 612.816 612.816"
   style="enable-background:new 0 0 612.816 612.816;"
   xml:space="preserve"
   sodipodi:docname="right.svg"
   inkscape:version="1.1 (1:1.1+202105261517+ce6663b3b7)"
   xmlns:inkscape="http://www.inkscape.org/namespaces/inkscape"
   xmlns:sodipodi="http://sodipodi.sourceforge.net/DTD/sodipodi-0.dtd"
   xmlns="http://www.w3.org/2000/svg"
   xmlns:svg="http://www.w3.org/2000/svg"><defs
   id="defs1385" /><sodipodi:namedview
   id="namedview1383"
   pagecolor="#ffffff"
   bordercolor="#666666"
   borderopacity="1.0"
   inkscape:pageshadow="2"
   inkscape:pageopacity="0.0"
   inkscape:pagecheckerboard="0"
   showgrid="false"
   inkscape:zoom="1.0362001"
   inkscape:cx="306.40799"
   inkscape:cy="305.92546"
   inkscape:window-width="1920"
   inkscape:window-height="1023"
   inkscape:window-x="0"
   inkscape:window-y="25"
   inkscape:window-maximized="1"
   inkscape:current-layer="Capa_1" />
<g
   id="g1350"
   style="fill:#f53838;fill-opacity:1">
	<path
   d="M306.408,0C137.368,0,0.371,136.997,0.371,306.037s136.997,306.779,306.037,306.779s306.037-136.997,306.037-306.037   S475.448,0,306.408,0z M306.408,583.147c-152.203,0-276.368-124.165-276.368-276.368S154.205,29.595,306.408,29.595   S582.776,153.76,582.776,305.963S458.611,583.147,306.408,583.147z M448.968,313.158c0,0,0,0.816-0.816,0.816   c-0.816,0.816-0.816,1.632-1.632,2.374L336.003,426.865c-3.189,3.189-6.379,4.005-10.384,4.005c-4.005,0-7.195-1.632-10.384-4.005   c-5.637-5.637-5.637-15.205,0-20.843l84.928-84.928H165.405c-8.011,0-14.39-6.379-14.39-14.39c0-8.011,6.379-14.39,14.39-14.39   h234.683l-84.038-84.038c-5.637-5.637-5.637-15.205,0-20.843c5.637-5.637,15.205-5.637,20.843,0l108.886,108.96   c0.816,0.816,1.632,1.632,1.632,2.374l0.816,0.816c0,0.816,0.816,0.816,0.816,1.632c0,0.816,0,0.816,0.816,1.632   c0,0.816,0,0.816,0,1.632c0,1.632,0,4.005,0,5.637c0,0.816,0,0.816,0,1.632C449.784,312.416,449.784,312.416,448.968,313.158   C448.968,312.416,448.968,313.158,448.968,313.158z"
   id="path1348"
   style="fill:#f53838;fill-opacity:1" />
</g>
<g
   id="g1352">
</g>
<g
   id="g1354">
</g>
<g
   id="g1356">
</g>
<g
   id="g1358">
</g>
<g
   id="g1360">
</g>
<g
   id="g1362">
</g>
<g
   id="g1364">
</g>
<g
   id="g1366">
</g>
<g
   id="g1368">
</g>
<g
   id="g1370">
</g>
<g
   id="g1372">
</g>
<g
   id="g1374">
</g>
<g
   id="g1376">
</g>
<g
   id="g1378">
</g>
<g
   id="g1380">
</g>
</svg>
